<?xml version="1.0" encoding="UTF-8"?>
<svg width="180px" height="184px" viewBox="0 0 180 184" version="1.1" xmlns="http://www.w3.org/2000/svg" xmlns:xlink="http://www.w3.org/1999/xlink">
    <title>3 compl. invest. styles — home</title>
    <g id="3-compl.-invest.-styles-—-home" stroke="none" stroke-width="1" fill="none" fill-rule="evenodd">
        <g id="3-investements" fill-rule="nonzero">
            <g id="Group" fill="#169AD4">
                <path d="M8.7,64.6 L11.4,19.2 L23.7,26.7 C39.7,9.7 62.3,0 85.6,0 C106.2,0 125.4,7.2 141.1,20.8 L143.2,22.6 L135.2,19.9 L137.9,40.4 L136.7,39.1 C123.2,24.5 105.1,16.5 85.5,16.5 C68.2,16.5 51.5,23.2 38.5,35.5 L46.4,39.7 L8.7,64.6 Z M12.3,21.1 L9.8,62.5 L44.2,39.8 L36.6,35.8 L37.1,35.3 C50.4,22.5 67.6,15.5 85.4,15.5 C104.7,15.5 122.7,23.2 136.2,37.2 L134,18.3 L138.3,19.7 C123.1,7.5 105,1.1 85.6,1.1 C62.4,1.1 40,10.8 24.1,27.8 L23.8,28.1 L12.3,21.1 Z" id="Shape"></path>
                <path d="M110.1,167.8 L118.4,161.6 L99.1,153.6 L100.7,153.2 C131.9,145.9 154.6,117.5 154.6,85.6 C154.6,80.2 153.6,74.7 152.7,69.9 L144.8,74.1 L142.1,28.8 L180,53.6 L167.7,61 C170.1,68.2 171.2,76.3 171.2,85.5 C171.2,121.6 148,154.1 113.4,166.5 L110.1,167.8 Z M102.6,153.8 L120.6,161.3 L116.8,164.2 C148.9,151 170.2,119.9 170.2,85.6 C170.2,76.3 169,68.2 166.6,61 L166.5,60.6 L178,53.6 L143.4,30.9 L145.9,72.3 L153.6,68.2 L153.7,68.9 C154.7,73.9 155.8,79.7 155.8,85.5 C155.8,117.4 133.5,145.9 102.6,153.8 Z" id="Shape"></path>
                <path d="M67,184 L67,169.4 C27.5,158.9 0,124 0,84.2 C0,78.4 0.5,72.5 1.6,67.3 L2.1,64.5 L4,74.8 L20.4,61.1 L19.9,62.8 C17.9,69.4 16.8,76.8 16.8,84.1 C16.8,115.2 36.9,142.1 67,151.4 L67,142.3 L108,163.1 L67,184 Z M2.1,70.4 C1.4,74.7 1.1,79.4 1.1,84.1 C1.1,123.5 28.5,158.2 67.7,168.4 L68.1,168.5 L68.1,182.2 L105.6,163.2 L68.1,144.2 L68.1,153 L67.4,152.8 C52.7,148.4 39.5,139.3 30.3,127.2 C20.8,114.7 15.7,99.8 15.7,84.2 C15.7,77.4 16.6,70.5 18.4,64.3 L3.3,76.8 L2.1,70.4 Z" id="Shape"></path>
            </g>
            <path d="M85.135847,113.467 C89.6268763,113.467 93.4332975,112.727623 96.5551105,111.24887 C99.6769235,109.770116 102.031975,107.757368 103.620266,105.210626 C105.208557,102.663884 106.002703,99.7474533 106.002703,96.4613343 C106.002703,91.7512304 104.428104,87.9311171 101.278907,85.0009943 C98.1297092,82.0708716 93.5428347,80.4415042 87.5182833,80.1128924 L87.5182833,80.1128924 L103.784572,59.6568017 L103.784572,55.467 L66.8157337,55.467 L66.8157337,60.7247904 L96.2264986,60.7247904 L80.2888215,80.6879632 L80.2888215,85.0420708 L84.3964703,85.0420708 C89.599492,85.0420708 93.4880661,86.0552908 96.0621926,88.0817309 C98.6363192,90.1081709 99.9233824,92.901372 99.9233824,96.4613343 C99.9233824,100.076065 98.6363192,102.910343 96.0621926,104.964167 C93.4880661,107.017992 89.8459509,108.044904 85.135847,108.044904 C81.5211161,108.044904 78.1254599,107.428756 74.9488782,106.196462 C71.7722965,104.964167 69.2255543,103.362184 67.3086516,101.390513 L67.3086516,101.390513 L64.4332975,106.073232 C66.6788121,108.318747 69.6500113,110.11242 73.3468952,111.454252 C77.043779,112.796084 80.9734297,113.467 85.135847,113.467 Z" id="3" fill="#386D90"></path>
        </g>
    </g>
</svg>