<?xml version="1.0" encoding="utf-8"?>
<!-- Generator: Adobe Illustrator 23.0.2, SVG Export Plug-In . SVG Version: 6.00 Build 0)  -->
<svg version="1.1" id="Layer_1" xmlns="http://www.w3.org/2000/svg" xmlns:xlink="http://www.w3.org/1999/xlink" x="0px" y="0px"
	 viewBox="0 0 200 200" style="enable-background:new 0 0 200 200;" xml:space="preserve">
<style type="text/css">
	.st0{fill:#169AD4;}
</style>
<g>
	<path class="st0" d="M136.8,53.9c2.6,0.4,3.7,0.4,6.6-0.1c5.5-1.3,10.9-5.1,13.3-9.4c2.8-5,3.7-17.3,3.3-22
		C159,11.8,148.9,7,139.9,7c-9,0-19.1,4.8-20.1,15.4c-0.4,4.9,0.6,17.2,3.3,22C125.5,48.7,131,52.5,136.8,53.9z M121.5,22.5
		L121.5,22.5c0.9-9.6,9.9-13.9,18.4-13.9c8.5,0,17.5,4.3,18.4,13.9c0.5,5.1-0.7,16.9-3.1,21.1c-2.2,3.9-7.2,7.4-12.2,8.6l-0.1,0
		c-1.4,0.2-2.2,0.3-3.1,0.3c-0.8,0-1.5-0.1-2.7-0.2l-0.1,0c-5.3-1.2-10.3-4.7-12.5-8.7C122.2,39.4,121,27.6,121.5,22.5z"/>
	<path class="st0" d="M184.2,83.7L184.2,83.7c-0.4-4.9-2.5-9-6.5-12.2c-13.2-10.8-42-8.7-53.8-7.3c-18.8,2.3-27.8,10.2-40.2,21.1
		l-0.4,0.4c-4.3,3.8-9.2,8.1-15.1,12.7L67.4,99l-1-0.1c-6.7-0.9-13-1-15.4-1c-1.8,0-11.3,0.1-20.2,1.9c-7.5,1.5-16.5,4.5-16.6,10.6
		L12.5,193l1.6,0l0.8-45.7l0.9-37C16,104.9,28.1,99.4,51,99.4c17.2,0,34.7,3.7,34.9,10.9l0.9,36.9l0.5,45.7l1.6,0l-0.5-45.7
		l-0.9-36.4l26.5-13l-5.2,93.1H171l-5-94.5l-1.6,0.1l4.9,92.7h-58.7l0.1-2.5l5-88.6l-3.6-1.1l-24.4,11.9l-1.2-1.8
		c-1.8-2.8-5.8-5.1-12.1-6.7l-4.6-1.2l3.7-3c4.3-3.5,8.1-6.8,11.1-9.5l0.2-0.2c13.1-11.5,21-18.5,39.3-20.7
		c24.1-2.9,43.8-0.3,52.6,6.9c3.6,3,5.5,6.6,5.9,11.1l3.3,44.7l0,0.1L185,193l1.6,0l0.8-64.5L184.2,83.7z"/>
	<polygon class="st0" points="69.9,120.8 72.6,189.3 29.1,189.3 29.2,186.8 31.8,120.8 30.2,120.8 27.3,190.9 74.4,190.9 
		71.6,120.8 	"/>
	<path class="st0" d="M49.4,89.5c2.2,0.3,3.1,0.3,5.6-0.1c4.6-1.1,9.3-4.4,11.4-8.1c2.3-4.1,3.2-14.6,2.8-18.8
		c-0.7-7.8-7.6-13.1-17.2-13.1c-9.5,0-16.4,5.3-17.2,13.1c-0.4,4,0.4,14.5,2.8,18.8C39.8,85.1,44.5,88.4,49.4,89.5z M36.5,62.8
		L36.5,62.8c0.8-8.5,8.5-11.6,15.5-11.6c6.7,0,14.7,3,15.5,11.6C68,67.1,66.9,77,65,80.6c-1.5,2.7-5.3,6.1-10.2,7.2
		c-1.3,0.2-2,0.3-2.7,0.3c-0.7,0-1.3-0.1-2.2-0.2l-0.1,0c-5.1-1.2-9.1-4.6-10.6-7.3C37.2,77.1,36.1,67.1,36.5,62.8z"/>
</g>
</svg>
