<?xml version="1.0" encoding="UTF-8"?>
<svg width="1341px" height="735px" viewBox="0 0 1341 735" version="1.1" xmlns="http://www.w3.org/2000/svg" xmlns:xlink="http://www.w3.org/1999/xlink">
    <title>Shareholders equity - NL</title>
    <g id="Shareholders-equity---NL" stroke="none" stroke-width="1" fill="none" fill-rule="evenodd">
        <path d="M669.6,720.1 C675.4,691.3 739.6,584.9 868.9,584.9 L1132.4,584.2 C1194.7,584.2 1244.3,572.7 1281.2,549.7 C1318.2,526.7 1336.6,483.6 1336.6,420.4 L1336.6,4 L4,4 L4,420.4 C4,470.6 19.5,510.4 50.6,539.9 C81.6,569.4 133.3,584.1 205.7,584.1 L492.4,584.8 C621.8,584.8 669.6,720.1 669.6,720.1 Z" id="Path" stroke="#4E95C4" stroke-width="8"></path>
        <path d="M186.4125,363.05 C196.095833,363.05 204.525,361.620833 211.7,358.7625 C218.875,355.904167 224.3875,351.820833 228.2375,346.5125 C232.0875,341.204167 234.0125,334.991667 234.0125,327.875 C234.0125,320.641667 231.941667,314.458333 227.8,309.325 C223.658333,304.191667 217.7375,300.341667 210.0375,297.775 C216.3375,295.325 221.179167,291.795833 224.5625,287.1875 C227.945833,282.579167 229.6375,277.125 229.6375,270.825 C229.6375,264.291667 227.829167,258.575 224.2125,253.675 C220.595833,248.775 215.55,245.0125 209.075,242.3875 C202.6,239.7625 195.045833,238.45 186.4125,238.45 C173.345833,238.45 162.933333,241.366667 155.175,247.2 C147.416667,253.033333 143.5375,260.908333 143.5375,270.825 C143.5375,277.125 145.170833,282.579167 148.4375,287.1875 C151.704167,291.795833 156.4875,295.325 162.7875,297.775 C155.0875,300.341667 149.225,304.1625 145.2,309.2375 C141.175,314.3125 139.1625,320.525 139.1625,327.875 C139.1625,338.725 143.3625,347.3 151.7625,353.6 C160.1625,359.9 171.7125,363.05 186.4125,363.05 Z M186.4125,293.225 C176.9625,293.225 169.554167,291.241667 164.1875,287.275 C158.820833,283.308333 156.1375,277.941667 156.1375,271.175 C156.1375,264.408333 158.85,259.041667 164.275,255.075 C169.7,251.108333 177.079167,249.125 186.4125,249.125 C195.629167,249.125 203.008333,251.108333 208.55,255.075 C214.091667,259.041667 216.8625,264.466667 216.8625,271.35 C216.8625,278 214.15,283.308333 208.725,287.275 C203.3,291.241667 195.8625,293.225 186.4125,293.225 Z M186.4125,352.375 C175.5625,352.375 167.104167,350.1875 161.0375,345.8125 C154.970833,341.4375 151.9375,335.4 151.9375,327.7 C151.9375,320.116667 155,314.1375 161.125,309.7625 C167.25,305.3875 175.679167,303.2 186.4125,303.2 C197.2625,303.2 205.75,305.3875 211.875,309.7625 C218,314.1375 221.0625,320.116667 221.0625,327.7 C221.0625,335.283333 218,341.291667 211.875,345.725 C205.75,350.158333 197.2625,352.375 186.4125,352.375 Z M262.3625,387.55 L269.7125,363.4 C270.529167,361.3 271.141667,359.433333 271.55,357.8 C271.958333,356.166667 272.1625,354.65 272.1625,353.25 C272.1625,350.566667 271.2875,348.320833 269.5375,346.5125 C267.7875,344.704167 265.570833,343.8 262.8875,343.8 C260.204167,343.8 257.9875,344.704167 256.2375,346.5125 C254.4875,348.320833 253.6125,350.566667 253.6125,353.25 C253.6125,355.466667 254.195833,357.3625 255.3625,358.9375 C256.529167,360.5125 258.045833,361.591667 259.9125,362.175 L259.9125,362.175 L253.9625,387.55 L262.3625,387.55 Z M322.7375,363.05 C333.9375,363.05 343.7375,360.629167 352.1375,355.7875 C360.5375,350.945833 367.070833,343.8 371.7375,334.35 C376.404167,324.9 378.7375,313.35 378.7375,299.7 C378.7375,280.216667 374.420833,265.1375 365.7875,254.4625 C357.154167,243.7875 344.729167,238.45 328.5125,238.45 C320.579167,238.45 313.433333,239.995833 307.075,243.0875 C300.716667,246.179167 295.729167,250.583333 292.1125,256.3 C288.495833,262.016667 286.6875,268.608333 286.6875,276.075 C286.6875,283.425 288.4375,289.870833 291.9375,295.4125 C295.4375,300.954167 300.308333,305.241667 306.55,308.275 C312.791667,311.308333 319.9375,312.825 327.9875,312.825 C336.620833,312.825 344.2625,310.9875 350.9125,307.3125 C357.5625,303.6375 362.404167,298.475 365.4375,291.825 C365.7875,295.441667 365.9625,298.766667 365.9625,301.8 C365.9625,318.133333 362.1125,330.5875 354.4125,339.1625 C346.7125,347.7375 336.095833,352.025 322.5625,352.025 C312.529167,352.025 304.595833,350.1 298.7625,346.25 L298.7625,346.25 L293.6875,356.4 C300.920833,360.833333 310.604167,363.05 322.7375,363.05 Z M329.9125,302.15 C320.4625,302.15 312.966667,299.758333 307.425,294.975 C301.883333,290.191667 299.1125,283.775 299.1125,275.725 C299.1125,267.675 301.883333,261.229167 307.425,256.3875 C312.966667,251.545833 320.170833,249.125 329.0375,249.125 C335.804167,249.125 341.6375,250.35 346.5375,252.8 C351.4375,255.25 355.141667,258.458333 357.65,262.425 C360.158333,266.391667 361.4125,270.708333 361.4125,275.375 C361.4125,280.391667 360.070833,284.941667 357.3875,289.025 C354.704167,293.108333 351,296.316667 346.275,298.65 C341.55,300.983333 336.095833,302.15 329.9125,302.15 Z M463.4375,362 L463.4375,313.7 C463.4375,303.316667 466.208333,295.179167 471.75,289.2875 C477.291667,283.395833 484.7875,280.45 494.2375,280.45 C502.754167,280.45 509.316667,282.958333 513.925,287.975 C518.533333,292.991667 520.8375,300.283333 520.8375,309.85 L520.8375,309.85 L520.8375,362 L533.2625,362 L533.2625,313.7 C533.2625,303.316667 536.004167,295.179167 541.4875,289.2875 C546.970833,283.395833 554.495833,280.45 564.0625,280.45 C572.4625,280.45 578.966667,282.958333 583.575,287.975 C588.183333,292.991667 590.4875,300.283333 590.4875,309.85 L590.4875,309.85 L590.4875,362 L602.9125,362 L602.9125,308.625 C602.9125,295.675 599.616667,285.875 593.025,279.225 C586.433333,272.575 577.3625,269.25 565.8125,269.25 C557.645833,269.25 550.383333,270.970833 544.025,274.4125 C537.666667,277.854167 532.795833,282.608333 529.4125,288.675 C526.6125,282.258333 522.383333,277.416667 516.725,274.15 C511.066667,270.883333 504.3875,269.25 496.6875,269.25 C489.104167,269.25 482.395833,270.766667 476.5625,273.8 C470.729167,276.833333 466.179167,281.15 462.9125,286.75 L462.9125,286.75 L462.9125,269.95 L451.0125,269.95 L451.0125,362 L463.4375,362 Z M649.1125,362 L649.1125,232.15 L636.6875,232.15 L636.6875,362 L649.1125,362 Z M720.3375,362.875 C728.0375,362.875 734.95,361.241667 741.075,357.975 C747.2,354.708333 752.129167,349.983333 755.8625,343.8 L755.8625,343.8 L755.8625,362 L767.7625,362 L767.7625,232.15 L755.3375,232.15 L755.3375,287.45 C751.4875,281.5 746.558333,276.979167 740.55,273.8875 C734.541667,270.795833 727.804167,269.25 720.3375,269.25 C711.704167,269.25 703.8875,271.204167 696.8875,275.1125 C689.8875,279.020833 684.404167,284.533333 680.4375,291.65 C676.470833,298.766667 674.4875,306.875 674.4875,315.975 C674.4875,325.075 676.470833,333.183333 680.4375,340.3 C684.404167,347.416667 689.8875,352.958333 696.8875,356.925 C703.8875,360.891667 711.704167,362.875 720.3375,362.875 Z M721.3875,351.85 C714.854167,351.85 708.991667,350.3625 703.8,347.3875 C698.608333,344.4125 694.525,340.183333 691.55,334.7 C688.575,329.216667 687.0875,322.975 687.0875,315.975 C687.0875,308.975 688.575,302.733333 691.55,297.25 C694.525,291.766667 698.608333,287.5375 703.8,284.5625 C708.991667,281.5875 714.854167,280.1 721.3875,280.1 C727.804167,280.1 733.608333,281.5875 738.8,284.5625 C743.991667,287.5375 748.075,291.766667 751.05,297.25 C754.025,302.733333 755.5125,308.975 755.5125,315.975 C755.5125,322.975 754.025,329.216667 751.05,334.7 C748.075,340.183333 743.991667,344.4125 738.8,347.3875 C733.608333,350.3625 727.804167,351.85 721.3875,351.85 Z M934.6125,362 L934.6125,350.8 L860.9375,350.8 L860.9375,305.3 L924.2875,305.3 L924.2875,294.275 L860.9375,294.275 L860.9375,250.7 L931.9875,250.7 L931.9875,239.5 L847.9875,239.5 L847.9875,362 L934.6125,362 Z M1014.4125,363.05 C1030.27917,363.05 1042.61667,358.5 1051.425,349.4 C1060.23333,340.3 1064.6375,327.058333 1064.6375,309.675 L1064.6375,309.675 L1064.6375,239.5 L1052.0375,239.5 L1052.0375,309.15 C1052.0375,323.383333 1048.82917,334 1042.4125,341 C1035.99583,348 1026.6625,351.5 1014.4125,351.5 C1002.27917,351.5 993.004167,348 986.5875,341 C980.170833,334 976.9625,323.383333 976.9625,309.15 L976.9625,309.15 L976.9625,239.5 L964.0125,239.5 L964.0125,309.675 C964.0125,327.058333 968.445833,340.3 977.3125,349.4 C986.179167,358.5 998.545833,363.05 1014.4125,363.05 Z M1116.6125,362 L1116.6125,323.15 L1149.5125,323.15 C1152.89583,323.15 1156.1625,322.975 1159.3125,322.625 L1159.3125,322.625 L1187.3125,362 L1201.4875,362 L1171.5625,320 C1180.54583,317.083333 1187.45833,312.329167 1192.3,305.7375 C1197.14167,299.145833 1199.5625,291.066667 1199.5625,281.5 C1199.5625,268.433333 1195.12917,258.166667 1186.2625,250.7 C1177.39583,243.233333 1165.14583,239.5 1149.5125,239.5 L1149.5125,239.5 L1103.6625,239.5 L1103.6625,362 L1116.6125,362 Z M1149.1625,312.125 L1116.6125,312.125 L1116.6125,250.7 L1149.1625,250.7 C1161.29583,250.7 1170.57083,253.354167 1176.9875,258.6625 C1183.40417,263.970833 1186.6125,271.583333 1186.6125,281.5 C1186.6125,291.183333 1183.40417,298.708333 1176.9875,304.075 C1170.57083,309.441667 1161.29583,312.125 1149.1625,312.125 L1149.1625,312.125 Z" id="8,9mld.EUR" fill="#4E95C4" fill-rule="nonzero"></path>
    </g>
</svg>